<?xml version="1.0" encoding="utf-8"?>
<svg viewBox="250.571 81.521 179.388 47.438" xmlns="http://www.w3.org/2000/svg">
  <g class="brandLogo__wordMark" transform="matrix(1.5, 0, 0, 1.5, 193.201889, 79.235703)">
    <path d="m54.18 15.375c-2.1758 0-3.25 1.7188-3.7461 2.8281-0.27344 0.61719-0.35156 1.1055-0.57422 1.1055-0.32031 0-0.089844-0.42188-0.34766-1.3672-0.33984-1.2422-1.3633-2.5586-3.5352-2.5586-2.2812 0-3.2617 1.9375-3.7227 3.0039-0.32031 0.72656-0.32031 0.92969-0.5625 0.92969-0.35156 0-0.058594-0.57812 0.097656-1.2578 0.19141-0.77734 0.21875-1.5859 0.078126-2.375h-3.6211v13.68h4.9336v-6.7969c0-1.3438 0.5625-3.043 1.5195-3.043 1.1133 0 1.3281 0.85547 1.3281 2.4375v7.418h4.9609v-6.8125c0-1.1953 0.48438-3.043 1.5234-3.043 1.125 0 1.3203 1.2031 1.3203 2.4375v7.4141h4.875v-8.0508c0.003907-3.5703-1.25-5.9492-4.5273-5.9492z"/>
    <path d="m138.05 15.375c-2.1719 0-3.25 1.7188-3.7422 2.8281-0.27734 0.61719-0.35156 1.1055-0.57812 1.1055-0.31641 0-0.10156-0.53906-0.34375-1.3672-0.36328-1.2344-1.2656-2.5586-3.5352-2.5586-2.2734 0-3.2617 1.9375-3.7266 3.0039-0.31641 0.72656-0.31641 0.92969-0.55859 0.92969-0.35547 0-0.0625-0.57812 0.097656-1.2578 0.19141-0.77734 0.21484-1.5859 0.074219-2.375h-3.6211v13.68h4.9375v-6.7969c0-1.3438 0.55859-3.043 1.5156-3.043 1.1055 0 1.332 0.85547 1.332 2.4375v7.418h4.957v-6.8125c0-1.1953 0.48828-3.043 1.5273-3.043 1.1133 0 1.3203 1.2031 1.3203 2.4375v7.4141h4.8711v-8.0508c0.003906-3.5703-1.2461-5.9492-4.5273-5.9492z"/>
    <path d="m67.148 15.379c-2.2422-0.011718-4.4609 0.46484-6.5039 1.3945v4.1133s3-1.7344 5.4336-1.7344c1.9414 0 2.1797 1.0547 2.0938 1.9219 0 0-0.55859-0.14844-2.2695-0.14844-4.0273 0-6.0625 1.8398-6.0625 4.7891 0 2.7969 2.2852 3.9648 4.2109 3.9648 2.8086 0 4.043-1.8945 4.4258-2.7969 0.26172-0.625 0.30859-1.043 0.54688-1.043 0.26953 0 0.17578 0.30078 0.16016 0.92188-0.023438 1.0898 0.027344 1.9102 0.19531 2.6055h3.7305v-6.7266c0-4.2031-1.4766-7.2617-5.9609-7.2617zm-1.207 10.793c-1.1836 0.27344-1.793-0.09375-1.793-0.87891 0-1.0781 1.1133-1.5117 2.6914-1.5117 0.69922 0 1.3555 0.0625 1.3555 0.0625 0.003907 0.46094-0.99219 2.0352-2.2539 2.3281z"/>
    <path d="m81.25 11.547h4.9453v17.824h-4.9453z"/>
    <path d="m91.633 22.531c0-1.2305 1.1367-2.3477 3.2227-2.3477 2.2773 0 4.1055 1.1016 4.5156 1.3477v-4.7578s-1.4453-1.3945-4.9961-1.3945c-3.7461 0-6.8633 2.2031-6.8633 6.9414 0 4.7383 2.8281 7.3594 6.8477 7.3594 3.1406 0 5.0156-1.7344 5.0156-1.7344v-4.5117c-0.59375 0.33203-2.2422 1.4844-4.5 1.4844-2.3828 0-3.2422-1.1055-3.2422-2.3867z"/>
    <path d="m109.38 15.379c-2.8672 0-3.9492 2.7188-4.168 3.1992-0.22266 0.48047-0.33203 0.74609-0.51172 0.73828-0.31641-0.007812-0.09375-0.57812 0.03125-0.94922 0.47656-1.5469 0.71484-3.1562 0.71484-4.7773 0-1.5273-0.20703-2.0352-0.20703-2.0352h-4.2656v17.816h4.9375v-6.8047c0-1.1094 0.44141-3.043 1.6875-3.043 1.0312 0 1.3516 0.76953 1.3516 2.3164v7.5352h4.9375v-7.2422c0.011719-3.5156-0.57031-6.7539-4.5078-6.7539z"/>
    <path d="m115.51 15.707v13.664h4.9375v-13.664s-0.83203 0.48047-2.4688 0.48047c-1.6328 0-2.4688-0.48047-2.4688-0.48047z"/>
    <path d="m120.99 13.395c0-1.0977-1.3555-1.9844-3.0273-1.9844-1.668 0-3.0234 0.88672-3.0234 1.9844 0 1.0938 1.3555 1.9844 3.0234 1.9844 1.6719 0 3.0273-0.89062 3.0273-1.9844z"/>
    <path d="m74.711 15.707v13.664h4.9375v-13.664s-0.83203 0.48047-2.4648 0.48047c-1.6328 0-2.4727-0.48047-2.4727-0.48047z"/>
    <path d="m80.191 13.395c0-1.0977-1.3555-1.9844-3.0234-1.9844-1.6719 0-3.0234 0.88672-3.0234 1.9844 0 1.0938 1.3516 1.9844 3.0234 1.9844 1.668 0 3.0234-0.89062 3.0234-1.9844z"/>
    <path d="m152.4 15.375c-2.5391 0-3.7031 1.9219-4.207 3.0039-0.33594 0.71875-0.32031 0.92969-0.5625 0.92969-0.35156 0-0.058594-0.57812 0.097656-1.2578 0.19141-0.77344 0.21484-1.582 0.074219-2.3672h-3.6172v17.465h4.9375v-5.5391c0.58594 1 1.668 2.0664 3.3438 2.0664 3.5742 0 5.3711-3.043 5.3711-7.1445-0.003907-4.6523-2.1562-7.1562-5.4375-7.1562zm-1.3555 11.059c-1.1328 0-1.9648-1.4414-1.9648-3.457 0-1.957 0.85547-3.457 1.9258-3.457 1.375 0 1.9609 1.2695 1.9609 3.457 0 2.2773-0.53906 3.457-1.9219 3.457z"/>
    <path d="m51.906 3.6406c0.58203 0.003906 1.0547-0.47266 1.0586-1.0547 0-0.58594-0.47266-1.0625-1.0547-1.0625-0.58203 0-1.0547 0.47266-1.0547 1.0586 0 0.58594 0.46875 1.0586 1.0508 1.0586zm-8.4492 2.043c0.30859-0.69922 1.1367-1.3281 2.1641-1.3281 1.8164 0 2.5703 1.4023 2.5703 2.832v4.3789h-1.7422v-3.8828c0-0.83203-0.1875-1.8711-1.3047-1.8711-1.1211 0-1.6289 0.96094-1.6289 1.8984v3.8555h-1.7422v-7.0078h1.6562v1.1211zm-3.4766 5.8828h-1.7344v-7.0078h1.7344zm31.012-8.9844c0 0.58594-0.46875 1.0586-1.0508 1.0586-0.58203 0-1.0508-0.47266-1.0508-1.0586 0-0.58203 0.46875-1.0586 1.0508-1.0586 0.58203 0 1.0508 0.47656 1.0508 1.0586zm-21.91 3.5234h1.9531v5.4609h1.7461v-5.4609h1.9531v-1.5508h-5.6523zm9.9141 4.207c1.1055 0 1.6289-0.96094 1.6289-1.8984v-3.8555h1.7422v7.0078h-1.6562v-1.1211h-0.027344c-0.30078 0.70313-1.1289 1.3281-2.1641 1.3281-1.8125 0-2.5703-1.4023-2.5703-2.832v-4.3828h1.7422v3.8828c0 0.83984 0.1875 1.8711 1.3047 1.8711zm8.125-5.7617v1.5508h1.9531v5.4648h1.7422v-5.4609h1.9531v-1.5508zm-1.2227 7.0078h-1.7461v-7h1.7422z"/>
  </g>
</svg>