<svg fill="none" xmlns="http://www.w3.org/2000/svg" viewBox="0 0 25 25">
  <mask id="a" height="25" maskUnits="userSpaceOnUse" width="25" x="0" y="0">
    <path d="M2.778 9.722a6.944 6.944 0 1113.889 0 6.944 6.944 0 01-13.89 0zM9.722 0C4.352 0 0 4.353 0 9.722c0 5.37 4.353 9.722 9.722 9.722a9.68 9.68 0 005.834-1.943c.039.051.082.1.129.148l6.944 6.944a1.389 1.389 0 101.964-1.964l-6.944-6.944a1.399 1.399 0 00-.148-.13 9.68 9.68 0 001.943-5.833C19.444 4.352 15.092 0 9.722 0z" fill="#fff"/>
  </mask>
  <g fill="#000" mask="url(#a)">
    <path d="M2.778 9.722a6.944 6.944 0 1113.889 0 6.944 6.944 0 01-13.89 0zM9.722 0C4.352 0 0 4.353 0 9.722c0 5.37 4.353 9.722 9.722 9.722a9.68 9.68 0 005.834-1.943c.039.051.082.1.129.148l6.944 6.944a1.389 1.389 0 101.964-1.964l-6.944-6.944a1.399 1.399 0 00-.148-.13 9.68 9.68 0 001.943-5.833C19.444 4.352 15.092 0 9.722 0z"/>
    <path d="M25 0H0v25h25z"/>
  </g>
</svg>
