<?xml version="1.0" encoding="utf-8"?>
<svg viewBox="284.191 170.934 40 40" xmlns="http://www.w3.org/2000/svg">
  <path fill="#007C89" d="M 284.191 170.934 L 324.191 170.934 L 324.191 210.934 L 284.191 210.934 L 284.191 170.934 Z" opacity=".18"/>
  <path fill="#004E56" d="M 306.635 193.021 C 302.616 192.811 299.591 195.637 299.815 199.405 C 299.855 200.11 298.488 200.11 298.528 199.405 C 298.753 195.637 295.773 192.81 291.755 193.021 C 291.003 193.058 291.003 191.777 291.755 191.814 C 295.774 192.024 298.753 189.221 298.528 185.452 C 298.501 184.762 299.858 184.762 299.815 185.452 C 299.591 189.221 302.616 192.024 306.635 191.814 C 307.376 191.778 307.376 193.051 306.635 193.021 Z M 313.878 183.786 C 311.618 183.66 309.916 185.356 310.042 187.616 C 310.064 188.04 309.296 188.04 309.318 187.616 C 309.444 185.356 307.768 183.66 305.508 183.786 C 305.085 183.808 305.085 183.04 305.508 183.062 C 307.768 183.188 309.444 181.506 309.318 179.245 C 309.303 178.83 310.066 178.83 310.042 179.245 C 309.916 181.506 311.618 183.188 313.878 183.062 C 314.295 183.041 314.295 183.804 313.878 183.786 L 313.878 183.786 Z M 315.878 198.786 C 313.618 198.66 311.916 200.356 312.042 202.616 C 312.064 203.04 311.296 203.04 311.318 202.616 C 311.444 200.356 309.768 198.66 307.508 198.786 C 307.085 198.808 307.085 198.04 307.508 198.062 C 309.768 198.188 311.444 196.506 311.318 194.245 C 311.303 193.83 312.066 193.83 312.042 194.245 C 311.916 196.506 313.618 198.188 315.878 198.062 C 316.295 198.041 316.295 198.804 315.878 198.786 L 315.878 198.786 Z"/>
</svg>