<?xml version="1.0" encoding="utf-8"?>
<svg viewBox="365.871 155.604 35.702 35.709" xmlns="http://www.w3.org/2000/svg">
  <path d="M 397.31 185.01 C 397.362 184.951 397.414 184.888 397.463 184.829 C 397.505 184.78 397.543 184.731 397.585 184.683 C 397.631 184.627 397.676 184.571 397.721 184.512 C 397.763 184.46 397.801 184.407 397.843 184.355 C 397.885 184.299 397.93 184.243 397.972 184.188 C 398.014 184.135 398.052 184.08 398.091 184.027 C 398.132 183.972 398.174 183.916 398.216 183.856 C 398.255 183.801 398.293 183.749 398.331 183.693 C 398.373 183.633 398.411 183.578 398.453 183.518 C 398.492 183.463 398.526 183.41 398.565 183.355 C 398.603 183.295 398.645 183.236 398.683 183.177 C 398.718 183.121 398.756 183.065 398.791 183.009 C 398.83 182.95 398.868 182.887 398.906 182.825 C 398.941 182.769 398.976 182.713 399.007 182.657 C 399.046 182.595 399.084 182.528 399.123 182.462 C 399.154 182.41 399.185 182.354 399.217 182.302 C 399.258 182.229 399.3 182.155 399.342 182.079 C 399.366 182.033 399.394 181.988 399.419 181.939 L 399.607 181.584 C 399.631 181.538 399.652 181.493 399.677 181.444 C 399.715 181.368 399.753 181.291 399.792 181.211 C 399.816 181.159 399.844 181.103 399.868 181.05 C 399.903 180.981 399.935 180.908 399.97 180.838 C 399.994 180.782 400.022 180.723 400.046 180.667 C 400.078 180.597 400.109 180.528 400.137 180.458 C 400.161 180.399 400.186 180.339 400.21 180.284 C 400.238 180.214 400.269 180.144 400.297 180.074 C 400.322 180.015 400.342 179.956 400.367 179.897 C 400.395 179.827 400.423 179.754 400.447 179.684 C 400.468 179.625 400.492 179.565 400.513 179.506 C 400.541 179.433 400.566 179.36 400.59 179.287 C 400.611 179.227 400.632 179.168 400.649 179.109 L 400.722 178.879 C 400.74 178.823 400.757 178.767 400.778 178.708 C 400.803 178.624 400.827 178.544 400.851 178.46 C 400.865 178.408 400.883 178.359 400.897 178.307 C 400.928 178.199 400.956 178.094 400.984 177.986 C 400.991 177.958 400.998 177.931 401.008 177.903 C 401.043 177.767 401.078 177.631 401.109 177.495 C 401.12 177.45 401.13 177.408 401.137 177.362 L 401.2 177.08 C 401.21 177.024 401.221 176.969 401.231 176.916 C 401.249 176.833 401.266 176.749 401.28 176.662 L 401.312 176.484 C 401.325 176.404 401.339 176.32 401.353 176.24 C 401.364 176.181 401.371 176.118 401.381 176.059 C 401.392 175.979 401.406 175.895 401.416 175.815 C 401.423 175.752 401.434 175.693 401.441 175.63 C 401.451 175.55 401.461 175.466 401.468 175.386 C 401.475 175.323 401.482 175.264 401.489 175.201 L 401.51 174.95 C 401.514 174.891 401.521 174.828 401.524 174.769 C 401.531 174.682 401.535 174.595 401.542 174.508 C 401.545 174.452 401.549 174.393 401.552 174.337 L 401.563 174.044 C 401.563 173.995 401.566 173.946 401.566 173.901 C 401.57 173.755 401.573 173.608 401.573 173.462 C 401.573 168.271 399.346 163.594 395.797 160.331 L 395.783 160.317 C 395.689 160.23 395.591 160.146 395.497 160.059 C 395.487 160.052 395.48 160.041 395.469 160.034 L 395.187 159.794 C 395.173 159.783 395.159 159.77 395.145 159.759 C 395.054 159.682 394.96 159.606 394.866 159.533 C 394.849 159.519 394.831 159.505 394.817 159.491 C 394.727 159.417 394.636 159.348 394.542 159.278 C 394.521 159.264 394.504 159.247 394.483 159.233 C 394.392 159.167 394.302 159.097 394.211 159.031 C 394.187 159.013 394.166 158.996 394.141 158.978 C 394.054 158.916 393.963 158.853 393.873 158.79 C 393.845 158.773 393.821 158.752 393.793 158.734 C 393.705 158.675 393.615 158.616 393.528 158.556 C 393.5 158.536 393.468 158.518 393.441 158.497 C 393.353 158.441 393.266 158.386 393.176 158.33 C 393.144 158.309 393.113 158.292 393.082 158.271 C 392.994 158.218 392.907 158.163 392.82 158.11 L 392.716 158.048 C 392.628 157.999 392.545 157.946 392.458 157.898 C 392.419 157.877 392.384 157.856 392.346 157.835 C 392.262 157.786 392.175 157.741 392.088 157.696 C 392.05 157.675 392.008 157.654 391.97 157.633 C 391.886 157.587 391.799 157.546 391.715 157.504 C 391.673 157.483 391.631 157.462 391.586 157.441 C 391.503 157.399 391.419 157.357 391.335 157.319 L 391.199 157.256 L 390.948 157.141 C 390.899 157.12 390.854 157.099 390.805 157.078 C 390.722 157.044 390.642 157.009 390.558 156.974 C 390.509 156.953 390.457 156.932 390.408 156.911 C 390.328 156.876 390.244 156.845 390.164 156.814 C 390.112 156.793 390.059 156.775 390.007 156.754 C 389.927 156.723 389.843 156.695 389.763 156.664 C 389.707 156.643 389.655 156.625 389.599 156.604 L 389.359 156.521 C 389.303 156.503 389.244 156.482 389.188 156.465 C 389.108 156.441 389.028 156.413 388.951 156.388 L 388.773 156.336 C 388.693 156.312 388.616 156.291 388.536 156.266 C 388.473 156.249 388.414 156.231 388.351 156.217 C 388.275 156.197 388.194 156.176 388.118 156.155 C 388.055 156.137 387.989 156.123 387.926 156.106 C 387.849 156.089 387.773 156.068 387.696 156.05 C 387.63 156.036 387.564 156.022 387.497 156.005 C 387.421 155.987 387.347 155.974 387.271 155.956 C 387.201 155.942 387.131 155.928 387.062 155.918 C 386.988 155.904 386.912 155.89 386.839 155.876 C 386.769 155.862 386.696 155.851 386.622 155.841 C 386.549 155.831 386.476 155.817 386.403 155.806 C 386.33 155.796 386.253 155.785 386.18 155.775 C 386.106 155.764 386.037 155.754 385.964 155.747 C 385.887 155.736 385.81 155.729 385.73 155.719 C 385.66 155.712 385.591 155.702 385.521 155.695 L 385.28 155.674 C 385.214 155.667 385.144 155.66 385.078 155.656 C 384.991 155.649 384.904 155.646 384.82 155.639 L 384.632 155.628 C 384.531 155.625 384.433 155.621 384.332 155.618 C 384.28 155.618 384.231 155.614 384.179 155.611 C 384.029 155.607 383.876 155.604 383.726 155.604 C 383.572 155.604 383.422 155.607 383.272 155.611 C 383.22 155.611 383.171 155.614 383.119 155.618 C 383.018 155.621 382.92 155.625 382.819 155.628 L 382.631 155.639 C 382.544 155.646 382.457 155.649 382.373 155.656 C 382.303 155.66 382.237 155.667 382.171 155.674 L 381.93 155.695 C 381.861 155.702 381.791 155.709 381.721 155.719 C 381.645 155.729 381.568 155.736 381.488 155.747 C 381.415 155.757 381.345 155.768 381.272 155.775 C 381.198 155.785 381.122 155.796 381.048 155.806 C 380.975 155.817 380.902 155.831 380.829 155.841 C 380.756 155.851 380.686 155.865 380.613 155.876 C 380.54 155.89 380.463 155.904 380.39 155.918 C 380.32 155.932 380.25 155.942 380.181 155.956 C 380.104 155.97 380.031 155.987 379.954 156.005 C 379.888 156.019 379.822 156.033 379.755 156.05 C 379.679 156.068 379.602 156.085 379.525 156.106 C 379.462 156.12 379.396 156.137 379.334 156.155 C 379.257 156.176 379.177 156.197 379.1 156.217 C 379.037 156.235 378.978 156.249 378.915 156.266 C 378.835 156.287 378.758 156.312 378.678 156.336 L 378.5 156.388 C 378.42 156.413 378.34 156.437 378.263 156.465 C 378.208 156.482 378.148 156.503 378.093 156.521 L 377.852 156.604 C 377.796 156.622 377.744 156.643 377.688 156.664 C 377.608 156.692 377.524 156.723 377.444 156.754 C 377.392 156.775 377.34 156.793 377.287 156.814 C 377.204 156.845 377.124 156.88 377.043 156.911 C 376.995 156.932 376.942 156.953 376.893 156.974 C 376.81 157.009 376.73 157.044 376.646 157.078 C 376.597 157.099 376.552 157.12 376.503 157.141 L 376.252 157.256 L 376.116 157.319 C 376.032 157.357 375.949 157.399 375.865 157.441 C 375.823 157.462 375.781 157.483 375.736 157.504 C 375.653 157.546 375.565 157.591 375.482 157.633 C 375.44 157.654 375.402 157.675 375.363 157.696 C 375.276 157.741 375.192 157.79 375.105 157.835 C 375.067 157.856 375.032 157.877 374.994 157.898 C 374.907 157.946 374.819 157.995 374.732 158.048 C 374.697 158.068 374.662 158.089 374.628 158.107 C 374.541 158.159 374.453 158.211 374.366 158.267 C 374.335 158.288 374.303 158.306 374.272 158.326 C 374.185 158.382 374.094 158.438 374.007 158.494 C 373.979 158.511 373.948 158.532 373.92 158.553 C 373.829 158.612 373.742 158.671 373.655 158.731 C 373.627 158.748 373.603 158.766 373.575 158.786 C 373.484 158.849 373.397 158.912 373.307 158.975 C 373.282 158.992 373.261 159.01 373.237 159.027 C 373.146 159.093 373.056 159.16 372.965 159.229 C 372.944 159.243 372.927 159.261 372.906 159.275 C 372.815 159.344 372.721 159.417 372.63 159.487 C 372.613 159.501 372.595 159.515 372.581 159.529 C 372.487 159.602 372.397 159.679 372.303 159.756 C 372.289 159.766 372.275 159.78 372.261 159.79 L 371.978 160.031 C 371.968 160.038 371.961 160.048 371.951 160.055 C 371.853 160.139 371.759 160.226 371.665 160.313 L 371.651 160.327 C 368.099 163.59 365.871 168.268 365.871 173.458 C 365.871 173.605 365.875 173.751 365.878 173.898 C 365.878 173.946 365.882 173.995 365.882 174.04 L 365.892 174.333 C 365.896 174.389 365.899 174.448 365.903 174.504 C 365.906 174.591 365.913 174.678 365.92 174.765 C 365.924 174.825 365.931 174.887 365.934 174.947 L 365.955 175.198 C 365.962 175.261 365.969 175.32 365.976 175.383 C 365.986 175.466 365.993 175.546 366.004 175.626 C 366.011 175.689 366.018 175.748 366.028 175.811 C 366.039 175.891 366.049 175.975 366.063 176.055 C 366.074 176.115 366.08 176.177 366.091 176.236 C 366.105 176.32 366.119 176.4 366.133 176.484 L 366.164 176.662 C 366.178 176.745 366.195 176.829 366.213 176.916 C 366.223 176.972 366.234 177.028 366.244 177.08 L 366.307 177.362 C 366.317 177.408 366.324 177.45 366.335 177.495 C 366.366 177.631 366.401 177.767 366.436 177.903 C 366.443 177.931 366.45 177.958 366.46 177.986 C 366.488 178.094 366.516 178.203 366.548 178.307 C 366.562 178.359 366.579 178.408 366.593 178.46 C 366.617 178.544 366.642 178.628 366.666 178.708 C 366.683 178.764 366.701 178.82 366.718 178.879 L 366.792 179.109 C 366.813 179.168 366.833 179.227 366.851 179.283 C 366.875 179.356 366.903 179.429 366.928 179.503 C 366.948 179.562 366.969 179.621 366.994 179.681 C 367.022 179.75 367.046 179.823 367.074 179.893 C 367.098 179.952 367.119 180.012 367.144 180.071 C 367.172 180.141 367.199 180.21 367.231 180.28 C 367.255 180.339 367.28 180.399 367.304 180.454 C 367.335 180.524 367.363 180.594 367.395 180.663 C 367.419 180.719 367.447 180.779 367.471 180.834 C 367.503 180.904 367.537 180.977 367.569 181.047 C 367.593 181.103 367.621 181.155 367.646 181.211 C 367.684 181.287 367.722 181.364 367.761 181.444 C 367.785 181.49 367.806 181.535 367.83 181.584 L 368.019 181.939 C 368.043 181.985 368.071 182.03 368.095 182.079 C 368.137 182.152 368.175 182.225 368.221 182.298 C 368.252 182.351 368.284 182.406 368.315 182.459 C 368.353 182.525 368.392 182.588 368.43 182.654 C 368.465 182.71 368.5 182.765 368.531 182.821 C 368.569 182.884 368.608 182.943 368.646 183.006 C 368.681 183.062 368.719 183.117 368.754 183.173 C 368.792 183.232 368.831 183.292 368.873 183.351 C 368.911 183.407 368.946 183.463 368.984 183.515 C 369.022 183.574 369.064 183.63 369.106 183.689 C 369.144 183.745 369.183 183.797 369.221 183.853 C 369.263 183.909 369.305 183.968 369.347 184.024 C 369.385 184.076 369.427 184.132 369.465 184.184 C 369.507 184.24 369.552 184.296 369.594 184.351 C 369.636 184.404 369.674 184.456 369.716 184.508 C 369.761 184.564 369.807 184.623 369.852 184.679 C 369.894 184.728 369.932 184.777 369.974 184.829 C 370.026 184.892 370.075 184.951 370.127 185.01 C 370.514 185.463 370.922 185.899 371.355 186.314 C 371.452 186.405 371.546 186.499 371.647 186.589 C 371.654 186.593 371.658 186.6 371.665 186.603 C 371.759 186.691 371.853 186.774 371.951 186.861 C 371.961 186.868 371.968 186.879 371.978 186.886 C 372.073 186.966 372.163 187.046 372.257 187.126 C 372.271 187.137 372.285 187.151 372.299 187.161 C 372.39 187.238 372.484 187.311 372.575 187.388 C 372.592 187.402 372.609 187.416 372.623 187.429 C 372.714 187.503 372.805 187.572 372.895 187.642 C 372.916 187.656 372.937 187.673 372.958 187.687 C 373.049 187.754 373.139 187.823 373.23 187.89 C 373.254 187.907 373.275 187.925 373.3 187.942 C 373.387 188.005 373.477 188.067 373.568 188.13 C 373.596 188.148 373.62 188.168 373.648 188.186 C 373.735 188.245 373.826 188.304 373.913 188.364 C 373.941 188.385 373.972 188.402 374 188.423 L 374.262 188.59 C 374.293 188.611 374.324 188.632 374.359 188.65 L 374.621 188.806 L 374.725 188.869 C 374.812 188.918 374.896 188.97 374.983 189.019 C 375.022 189.04 375.056 189.061 375.095 189.082 C 375.178 189.13 375.266 189.176 375.353 189.221 C 375.395 189.242 375.433 189.263 375.475 189.284 C 375.558 189.329 375.642 189.371 375.729 189.413 C 375.771 189.434 375.813 189.455 375.858 189.476 C 375.942 189.517 376.026 189.556 376.109 189.598 L 376.245 189.66 L 376.496 189.775 C 376.545 189.796 376.59 189.817 376.639 189.838 C 376.723 189.873 376.803 189.908 376.887 189.943 C 376.935 189.964 376.988 189.985 377.036 190.005 C 377.117 190.04 377.2 190.072 377.284 190.103 C 377.336 190.124 377.388 190.141 377.441 190.162 C 377.521 190.194 377.605 190.225 377.685 190.253 C 377.74 190.274 377.793 190.291 377.849 190.312 L 378.089 190.396 C 378.145 190.413 378.204 190.434 378.26 190.452 C 378.34 190.476 378.417 190.504 378.497 190.528 L 378.675 190.581 C 378.751 190.605 378.832 190.626 378.912 190.65 C 378.974 190.668 379.034 190.685 379.096 190.699 C 379.173 190.72 379.253 190.741 379.33 190.762 C 379.393 190.779 379.459 190.793 379.522 190.811 C 379.598 190.828 379.675 190.849 379.752 190.866 C 379.818 190.88 379.884 190.894 379.95 190.912 C 380.027 190.929 380.1 190.943 380.177 190.961 C 380.247 190.975 380.317 190.988 380.383 190.999 C 380.456 191.013 380.533 191.027 380.606 191.041 C 380.675 191.055 380.749 191.065 380.822 191.076 C 380.895 191.086 380.968 191.1 381.042 191.111 C 381.115 191.121 381.192 191.131 381.265 191.142 C 381.338 191.152 381.408 191.163 381.481 191.17 C 381.557 191.18 381.634 191.187 381.714 191.198 C 381.784 191.205 381.854 191.215 381.923 191.222 L 382.164 191.243 C 382.23 191.25 382.3 191.257 382.366 191.26 C 382.453 191.267 382.54 191.271 382.624 191.278 L 382.812 191.288 C 382.913 191.292 383.011 191.295 383.112 191.299 C 383.164 191.299 383.213 191.302 383.265 191.306 C 383.415 191.309 383.569 191.313 383.719 191.313 C 383.872 191.313 384.022 191.309 384.172 191.306 C 384.224 191.306 384.273 191.302 384.325 191.299 C 384.426 191.295 384.524 191.292 384.625 191.288 L 384.813 191.278 C 384.9 191.271 384.987 191.267 385.071 191.26 C 385.141 191.257 385.207 191.25 385.273 191.243 L 385.514 191.222 C 385.584 191.215 385.653 191.208 385.723 191.198 C 385.8 191.187 385.876 191.18 385.957 191.17 C 386.03 191.159 386.099 191.149 386.173 191.142 C 386.246 191.131 386.323 191.121 386.396 191.111 C 386.469 191.1 386.542 191.086 386.615 191.076 C 386.689 191.065 386.758 191.051 386.832 191.041 C 386.905 191.027 386.981 191.013 387.055 190.999 C 387.124 190.985 387.194 190.975 387.26 190.961 C 387.337 190.947 387.41 190.929 387.487 190.912 C 387.553 190.898 387.619 190.884 387.686 190.866 C 387.762 190.849 387.839 190.832 387.916 190.811 C 387.978 190.797 388.045 190.779 388.107 190.762 C 388.184 190.741 388.264 190.72 388.341 190.699 C 388.404 190.682 388.463 190.668 388.526 190.65 C 388.606 190.629 388.682 190.605 388.763 190.581 L 388.94 190.528 C 389.021 190.504 389.101 190.48 389.177 190.452 C 389.233 190.434 389.292 190.413 389.348 190.396 L 389.589 190.312 C 389.645 190.295 389.697 190.274 389.753 190.253 C 389.833 190.225 389.916 190.194 389.997 190.162 C 390.049 190.141 390.101 190.124 390.153 190.103 C 390.237 190.072 390.317 190.037 390.401 190.005 C 390.45 189.985 390.502 189.964 390.551 189.943 C 390.634 189.908 390.718 189.873 390.798 189.838 C 390.847 189.817 390.893 189.796 390.941 189.775 L 391.192 189.66 L 391.328 189.598 C 391.412 189.559 391.496 189.517 391.579 189.476 C 391.621 189.455 391.666 189.434 391.708 189.413 C 391.792 189.371 391.879 189.326 391.963 189.284 C 392.004 189.263 392.043 189.242 392.085 189.221 C 392.172 189.176 392.255 189.13 392.343 189.082 C 392.381 189.061 392.416 189.04 392.454 189.019 C 392.541 188.97 392.628 188.921 392.712 188.869 L 392.817 188.806 L 393.078 188.65 C 393.109 188.629 393.141 188.608 393.176 188.59 L 393.437 188.423 C 393.465 188.406 393.496 188.385 393.524 188.364 C 393.611 188.304 393.702 188.245 393.789 188.186 C 393.817 188.168 393.841 188.148 393.869 188.13 C 393.96 188.067 394.047 188.005 394.138 187.942 C 394.162 187.925 394.183 187.907 394.207 187.89 C 394.298 187.823 394.389 187.757 394.479 187.687 C 394.5 187.673 394.521 187.656 394.542 187.642 C 394.633 187.572 394.727 187.503 394.814 187.429 C 394.831 187.416 394.849 187.402 394.863 187.388 C 394.957 187.314 395.048 187.238 395.138 187.161 C 395.152 187.151 395.166 187.137 395.18 187.126 C 395.274 187.046 395.368 186.966 395.459 186.886 C 395.469 186.879 395.476 186.868 395.487 186.861 C 395.584 186.778 395.678 186.691 395.773 186.603 C 395.78 186.6 395.783 186.593 395.79 186.589 C 395.888 186.499 395.985 186.408 396.083 186.314 C 396.515 185.903 396.923 185.467 397.31 185.01 Z M 399.97 174.671 C 399.966 174.727 399.959 174.786 399.956 174.842 L 399.935 175.072 C 399.928 175.132 399.921 175.191 399.917 175.25 C 399.91 175.323 399.9 175.396 399.893 175.47 C 399.886 175.529 399.879 175.588 399.868 175.647 C 399.858 175.721 399.848 175.79 399.837 175.86 C 399.827 175.919 399.82 175.982 399.809 176.041 C 399.799 176.111 399.785 176.181 399.774 176.25 C 399.764 176.31 399.753 176.372 399.743 176.432 C 399.729 176.502 399.718 176.571 399.705 176.637 C 399.694 176.697 399.68 176.759 399.666 176.819 C 399.652 176.888 399.638 176.955 399.621 177.021 C 399.607 177.08 399.593 177.139 399.579 177.202 C 399.562 177.268 399.548 177.338 399.53 177.404 C 399.516 177.464 399.502 177.523 399.485 177.582 C 399.468 177.648 399.45 177.715 399.429 177.784 C 399.412 177.843 399.398 177.903 399.38 177.958 C 399.36 178.025 399.342 178.091 399.321 178.157 C 399.304 178.216 399.286 178.272 399.269 178.331 C 399.248 178.398 399.227 178.464 399.203 178.53 C 399.185 178.586 399.168 178.642 399.147 178.701 C 399.123 178.771 399.098 178.84 399.074 178.907 C 399.056 178.959 399.035 179.011 399.018 179.063 C 398.976 179.182 398.931 179.297 398.885 179.416 C 398.865 179.471 398.84 179.531 398.816 179.586 C 398.791 179.649 398.767 179.708 398.739 179.771 C 398.715 179.83 398.687 179.89 398.662 179.949 C 398.638 180.005 398.614 180.064 398.586 180.12 C 398.558 180.179 398.53 180.242 398.502 180.301 C 398.478 180.357 398.45 180.412 398.425 180.468 C 398.397 180.528 398.366 180.59 398.338 180.65 C 398.31 180.702 398.286 180.758 398.258 180.81 C 398.227 180.869 398.195 180.928 398.164 180.991 L 398.08 181.148 C 398.049 181.207 398.014 181.267 397.983 181.329 C 397.955 181.382 397.927 181.43 397.895 181.483 L 397.791 181.66 C 397.763 181.709 397.732 181.761 397.704 181.81 C 397.669 181.87 397.634 181.929 397.596 181.988 C 397.564 182.037 397.536 182.086 397.505 182.134 C 397.467 182.194 397.432 182.253 397.394 182.312 C 397.362 182.361 397.331 182.406 397.299 182.452 C 397.261 182.511 397.223 182.57 397.181 182.626 L 397.087 182.762 L 396.961 182.94 C 396.93 182.982 396.898 183.023 396.867 183.069 C 396.825 183.128 396.78 183.187 396.735 183.246 C 396.703 183.285 396.672 183.327 396.644 183.365 C 396.599 183.424 396.55 183.487 396.505 183.546 C 396.477 183.581 396.449 183.616 396.421 183.647 C 396.369 183.71 396.316 183.776 396.264 183.839 C 396.254 183.853 396.243 183.867 396.229 183.877 C 396.083 184.052 395.933 184.223 395.783 184.393 C 394.553 183.811 393.162 183.32 391.642 182.936 C 392.447 180.43 392.935 177.491 393.012 174.316 L 399.984 174.316 C 399.98 174.354 399.98 174.396 399.977 174.434 C 399.98 174.511 399.977 174.591 399.97 174.671 Z M 392.569 187.133 C 392.479 187.192 392.388 187.248 392.297 187.304 C 392.28 187.314 392.266 187.325 392.248 187.335 C 392.165 187.388 392.078 187.44 391.991 187.489 C 391.97 187.503 391.945 187.517 391.924 187.527 C 391.841 187.576 391.76 187.621 391.677 187.67 C 391.649 187.684 391.624 187.701 391.597 187.715 C 391.516 187.761 391.433 187.806 391.353 187.848 C 391.325 187.865 391.293 187.879 391.266 187.893 L 391.025 188.019 C 390.994 188.036 390.962 188.05 390.931 188.067 C 390.851 188.106 390.77 188.148 390.69 188.186 C 390.659 188.2 390.624 188.217 390.593 188.231 C 390.512 188.27 390.432 188.308 390.349 188.343 C 390.317 188.357 390.282 188.371 390.251 188.385 C 390.167 188.419 390.087 188.458 390.004 188.493 C 389.972 188.507 389.944 188.517 389.913 188.531 L 389.651 188.636 C 389.631 188.643 389.61 188.653 389.589 188.66 C 389.282 188.778 388.972 188.887 388.655 188.988 L 388.592 189.009 C 388.515 189.033 388.438 189.054 388.365 189.078 C 388.334 189.089 388.299 189.099 388.268 189.106 C 389.383 187.935 390.352 186.338 391.123 184.421 C 392.381 184.735 393.552 185.125 394.601 185.578 C 393.974 186.143 393.301 186.659 392.59 187.119 C 392.58 187.126 392.573 187.13 392.569 187.133 Z M 378.852 189.012 L 378.79 188.991 C 378.473 188.89 378.162 188.782 377.855 188.663 C 377.835 188.656 377.814 188.65 377.796 188.639 L 377.535 188.534 C 377.503 188.521 377.476 188.51 377.444 188.5 C 377.361 188.465 377.277 188.43 377.197 188.392 C 377.165 188.378 377.13 188.364 377.099 188.35 C 377.019 188.315 376.935 188.277 376.855 188.238 C 376.824 188.224 376.789 188.207 376.757 188.193 C 376.677 188.155 376.597 188.116 376.517 188.074 C 376.486 188.057 376.454 188.043 376.423 188.026 L 376.182 187.9 C 376.154 187.886 376.123 187.869 376.095 187.855 C 376.012 187.809 375.931 187.768 375.851 187.722 C 375.823 187.708 375.799 187.694 375.771 187.677 C 375.687 187.632 375.604 187.583 375.523 187.534 C 375.503 187.52 375.478 187.506 375.457 187.496 C 375.37 187.443 375.286 187.395 375.199 187.342 C 375.182 187.332 375.168 187.321 375.15 187.314 C 375.06 187.259 374.969 187.199 374.879 187.144 C 374.875 187.14 374.868 187.137 374.865 187.133 C 374.154 186.67 373.484 186.157 372.857 185.592 C 373.906 185.139 375.077 184.749 376.336 184.435 C 377.103 186.352 378.075 187.949 379.191 189.12 C 379.159 189.11 379.124 189.099 379.093 189.092 C 379.002 189.057 378.926 189.033 378.852 189.012 Z M 371.166 183.836 C 371.114 183.773 371.062 183.707 371.009 183.644 C 370.981 183.609 370.954 183.578 370.929 183.543 C 370.88 183.484 370.835 183.421 370.79 183.362 C 370.758 183.323 370.731 183.285 370.699 183.243 C 370.654 183.184 370.612 183.125 370.567 183.065 C 370.535 183.023 370.504 182.982 370.473 182.936 L 370.347 182.758 L 370.253 182.623 C 370.215 182.563 370.173 182.504 370.134 182.445 C 370.103 182.399 370.072 182.351 370.044 182.305 C 370.005 182.246 369.967 182.187 369.932 182.128 C 369.901 182.079 369.873 182.03 369.842 181.981 C 369.807 181.922 369.768 181.863 369.734 181.803 C 369.702 181.755 369.674 181.702 369.646 181.653 C 369.612 181.594 369.577 181.535 369.545 181.476 C 369.518 181.423 369.49 181.375 369.458 181.322 C 369.427 181.263 369.392 181.204 369.361 181.145 L 369.277 180.988 C 369.246 180.928 369.214 180.869 369.183 180.806 C 369.155 180.754 369.131 180.698 369.103 180.646 C 369.071 180.587 369.043 180.524 369.015 180.465 C 368.988 180.409 368.963 180.353 368.939 180.297 C 368.911 180.238 368.883 180.179 368.855 180.116 C 368.831 180.06 368.806 180.001 368.778 179.945 C 368.754 179.886 368.726 179.827 368.702 179.768 C 368.677 179.705 368.649 179.642 368.625 179.579 C 368.601 179.524 368.58 179.468 368.555 179.412 C 368.51 179.297 368.465 179.179 368.423 179.06 C 368.406 179.008 368.385 178.955 368.367 178.903 L 368.294 178.694 C 368.276 178.638 368.256 178.582 368.238 178.523 C 368.217 178.457 368.193 178.391 368.172 178.325 C 368.154 178.265 368.137 178.21 368.12 178.15 C 368.099 178.084 368.078 178.018 368.06 177.952 C 368.043 177.892 368.029 177.833 368.012 177.774 C 367.994 177.707 367.973 177.641 367.956 177.572 C 367.942 177.512 367.924 177.453 367.911 177.394 C 367.893 177.328 367.876 177.258 367.862 177.192 L 367.82 177.014 C 367.806 176.944 367.788 176.878 367.775 176.808 C 367.761 176.749 367.75 176.69 367.736 176.627 C 367.722 176.557 367.708 176.488 367.698 176.421 C 367.687 176.362 367.677 176.299 367.666 176.24 C 367.656 176.17 367.642 176.101 367.632 176.031 C 367.621 175.972 367.614 175.909 367.604 175.85 C 367.593 175.78 367.583 175.707 367.572 175.637 C 367.565 175.578 367.555 175.518 367.548 175.459 C 367.537 175.386 367.53 175.313 367.524 175.24 C 367.517 175.18 367.51 175.121 367.506 175.062 L 367.485 174.832 C 367.482 174.776 367.475 174.717 367.471 174.661 C 367.464 174.581 367.461 174.501 367.457 174.42 C 367.454 174.382 367.454 174.34 367.45 174.302 L 374.422 174.302 C 374.495 177.481 374.987 180.416 375.792 182.922 C 374.276 183.306 372.881 183.797 371.651 184.379 C 371.497 184.209 371.347 184.034 371.198 183.86 C 371.184 183.86 371.173 183.85 371.166 183.836 Z M 374.868 159.783 C 374.959 159.724 375.049 159.668 375.14 159.613 C 375.158 159.602 375.171 159.592 375.189 159.581 C 375.273 159.529 375.36 159.477 375.447 159.428 C 375.468 159.414 375.492 159.4 375.513 159.39 C 375.597 159.341 375.68 159.295 375.761 159.247 C 375.788 159.233 375.813 159.215 375.841 159.201 C 375.921 159.156 376.005 159.111 376.085 159.069 C 376.113 159.051 376.144 159.037 376.172 159.024 L 376.412 158.898 C 376.444 158.881 376.475 158.867 376.506 158.849 C 376.587 158.811 376.667 158.769 376.747 158.731 C 376.778 158.717 376.813 158.699 376.845 158.685 C 376.925 158.647 377.005 158.609 377.089 158.574 C 377.12 158.56 377.155 158.546 377.186 158.532 C 377.27 158.497 377.354 158.459 377.434 158.424 C 377.465 158.41 377.493 158.4 377.524 158.386 C 377.612 158.351 377.699 158.312 377.786 158.281 C 377.807 158.274 377.828 158.264 377.849 158.257 C 378.155 158.138 378.466 158.03 378.779 157.929 L 378.842 157.908 C 378.919 157.884 378.995 157.863 379.072 157.838 C 379.103 157.828 379.135 157.817 379.17 157.811 C 378.054 158.982 377.085 160.578 376.315 162.495 C 375.056 162.182 373.885 161.791 372.836 161.338 C 373.463 160.773 374.136 160.258 374.844 159.797 C 374.858 159.79 374.865 159.787 374.868 159.783 Z M 388.588 157.905 L 388.651 157.926 C 388.965 158.027 389.278 158.135 389.585 158.253 C 389.606 158.26 389.627 158.271 389.648 158.278 L 389.91 158.382 C 389.941 158.396 389.972 158.407 390 158.421 C 390.084 158.455 390.167 158.49 390.248 158.529 C 390.279 158.543 390.314 158.556 390.345 158.57 C 390.425 158.605 390.509 158.644 390.589 158.682 C 390.621 158.696 390.655 158.713 390.687 158.727 C 390.767 158.766 390.847 158.804 390.931 158.846 C 390.962 158.86 390.994 158.877 391.025 158.891 C 391.105 158.933 391.189 158.975 391.269 159.017 C 391.297 159.031 391.328 159.048 391.356 159.062 C 391.436 159.107 391.52 159.149 391.6 159.194 C 391.628 159.208 391.652 159.226 391.68 159.24 C 391.764 159.285 391.848 159.334 391.928 159.383 C 391.949 159.397 391.973 159.41 391.994 159.421 C 392.081 159.473 392.165 159.522 392.252 159.574 C 392.269 159.585 392.283 159.595 392.301 159.606 C 392.391 159.661 392.482 159.721 392.573 159.777 C 392.576 159.78 392.583 159.783 392.587 159.787 C 393.298 160.251 393.967 160.767 394.598 161.328 C 393.549 161.781 392.377 162.171 391.119 162.485 C 390.352 160.568 389.38 158.971 388.264 157.8 C 388.295 157.811 388.327 157.817 388.358 157.828 C 388.435 157.859 388.512 157.88 388.588 157.905 Z M 393.019 172.604 C 392.946 169.425 392.454 166.49 391.649 163.984 C 393.165 163.6 394.56 163.109 395.79 162.527 C 398.234 165.221 399.788 168.738 399.99 172.608 L 393.019 172.608 L 393.019 172.604 Z M 382.865 163.36 C 381.129 163.315 379.452 163.133 377.887 162.837 C 379.142 159.818 380.906 157.741 382.865 157.267 L 382.865 163.36 Z M 382.865 164.911 L 382.865 172.604 L 375.97 172.604 C 376.05 169.572 376.545 166.727 377.336 164.329 C 379.058 164.664 380.916 164.866 382.865 164.911 Z M 382.865 174.312 L 382.865 182.006 C 380.916 182.051 379.058 182.253 377.336 182.588 C 376.545 180.186 376.05 177.345 375.97 174.312 L 382.865 174.312 Z M 382.865 183.557 L 382.865 189.65 C 380.906 189.176 379.142 187.098 377.887 184.08 C 379.456 183.783 381.129 183.602 382.865 183.557 Z M 384.573 183.557 C 386.309 183.602 387.985 183.783 389.55 184.08 C 388.295 187.098 386.532 189.176 384.573 189.65 L 384.573 183.557 Z M 384.573 182.006 L 384.573 174.312 L 391.468 174.312 C 391.387 177.345 390.893 180.189 390.101 182.588 C 388.379 182.253 386.521 182.051 384.573 182.006 Z M 384.573 172.604 L 384.573 164.911 C 386.521 164.866 388.379 164.664 390.101 164.329 C 390.893 166.731 391.387 169.572 391.468 172.604 L 384.573 172.604 Z M 384.573 163.36 L 384.573 157.267 C 386.532 157.741 388.295 159.818 389.55 162.837 C 387.982 163.133 386.309 163.315 384.573 163.36 Z M 371.647 162.523 C 372.878 163.105 374.269 163.597 375.788 163.98 C 374.983 166.487 374.495 169.425 374.419 172.601 L 367.447 172.601 C 367.646 168.735 369.2 165.221 371.647 162.523 Z" fill="" style="fill-opacity: 0.82;"/>
</svg>