<svg width="24" height="24" fill="none" xmlns="http://www.w3.org/2000/svg"><path d="M4.466 6.615a.75.75 0 011.061-.007 1.746 1.746 0 002.446 0 .75.75 0 111.054 1.067 3.246 3.246 0 01-4.554 0 .75.75 0 01-.007-1.06zM15.97 17.47a.75.75 0 011.06 0c.707.707 1.733.707 2.44 0a.75.75 0 111.06 1.06c-1.293 1.293-3.267 1.293-4.56 0a.75.75 0 010-1.06zm-.193-11.862a.75.75 0 10-1.054 1.067 3.246 3.246 0 004.554 0 .75.75 0 10-1.054-1.067 1.746 1.746 0 01-2.446 0zM3.716 18.615a.75.75 0 011.061-.007 1.746 1.746 0 002.446 0 .75.75 0 111.054 1.067 3.246 3.246 0 01-4.554 0 .75.75 0 01-.007-1.06z" fill="#241C15"/><path fill-rule="evenodd" clip-rule="evenodd" d="M2.267 8.803A5.5 5.5 0 1112.1 3.937C13.04 2.442 14.963 1.5 17 1.5c2.863 0 5.5 1.86 5.5 4.5 0 .975-.36 1.843-.957 2.55.593.735.99 1.492 1.185 2.27.22.88.237 2.019.062 3.428l-.005.038a5.5 5.5 0 01-7.727 7.361 13.298 13.298 0 01-4.058.316V23H1V13c0-1.516.458-2.944 1.267-4.197zM3 6a4 4 0 017.51-1.919l.007.012a3.99 3.99 0 01.456 1.45h.001a4 4 0 01-7.678 1.97L3.292 7.5v.001A3.989 3.989 0 013 6zm18.407 6.682c.011-.598-.035-1.098-.135-1.498-.135-.542-.42-1.092-.863-1.65-.961.614-2.164.966-3.409.966-2.037 0-3.96-.942-4.9-2.437a5.502 5.502 0 01-8.826 1.983A6.128 6.128 0 002.5 13H11v7.459a12.111 12.111 0 002.665-.074 5.5 5.5 0 017.742-7.703zm-4.188 8.242a4 4 0 101.563-7.847 4 4 0 00-1.563 7.847zM17 3c-2.384 0-4 1.499-4 3s1.616 3 4 3 4-1.499 4-3-1.616-3-4-3zM2.5 21.5v-7h7v7h-7z" fill="#241C15"/></svg>