<svg width="24" height="24" fill="none" xmlns="http://www.w3.org/2000/svg"><path d="M9.25 5c0 .685-1.076 1-2.118 1-1.04 0-1.882-.422-1.882-1 0-.578.845-1 1.882-1C8.17 4 9.25 4.318 9.25 5z" fill="#241C15"/><path fill-rule="evenodd" clip-rule="evenodd" d="M3.729 2.246C4.599 1.605 5.76 1.25 7 1.25c1.194 0 2.46.256 3.454.834 1.014.59 1.796 1.557 1.796 2.916 0 1.361-.778 2.329-1.793 2.919-.994.578-2.26.831-3.457.831-1.242 0-2.404-.354-3.275-.996C2.848 7.108 2.25 6.15 2.25 5s.602-2.109 1.479-2.754zm.889 1.208c-.572.42-.868.962-.868 1.546 0 .585.295 1.127.865 1.547.577.425 1.415.703 2.385.703 1.015 0 2-.22 2.703-.628.681-.396 1.047-.928 1.047-1.622 0-.688-.366-1.221-1.05-1.62-.705-.41-1.69-.63-2.7-.63-.966 0-1.804.278-2.382.704z" fill="#241C15"/><path d="M20.748 7.942C20.592 5.917 18.914 4.25 17 4.25h-3.5v1.5H17l.144.006c1.052.085 2.015 1.09 2.108 2.302.114 1.473-.448 2.343-1.934 2.714-.601.15-1.636.237-3.897.343l-2.416.108c-2.674.127-4.109.254-5.018.5l-.217.063c-2.174.699-3.02 2.08-3.02 4.214 0 2.011 1.364 3.75 3.25 3.75h3V22l3.5-3L9 16v2.25H6l-.13-.006c-.906-.085-1.62-1.05-1.62-2.244 0-1.525.476-2.303 1.98-2.786l.089-.027c.711-.205 2.036-.33 4.447-.45l3.786-.177c1.513-.081 2.344-.161 2.947-.29l.183-.042c2.229-.557 3.233-2.113 3.066-4.286z" fill="#241C15"/><path fill-rule="evenodd" clip-rule="evenodd" d="M14 15h8v8h-8v-8zm6.5 1.5h-5v5h5v-5z" fill="#241C15"/></svg>