<svg width="24" height="24" fill="none" xmlns="http://www.w3.org/2000/svg"><path fill-rule="evenodd" clip-rule="evenodd" d="M19.994 17l-6.01-14L.819 15.269A1 1 0 001.502 17h18.492zM2.771 15.5l8.058-7.51 3.385 7.51H2.77zm10.674-9.947l-1.457 1.358 3.871 8.589h1.856l-4.27-9.947z" fill="#241C15"/><path d="M8.476 19.885V18.5H6.973v1.385l.006.132c.073.83.828 1.483 1.747 1.483h2.504l.144-.005c.9-.068 1.609-.763 1.609-1.61V18.5h-1.502v1.385l-.007.052a.247.247 0 01-.244.178H8.726l-.057-.006a.236.236 0 01-.193-.224zM18.47 7.077l3.006-2.5-.96-1.154-3.005 2.5.96 1.154zm4.864 1.594l-4.006 2-.67-1.342 4.006-2 .67 1.342zm-3.34 5.079H23.5v-1.5h-3.506v1.5z" fill="#241C15"/></svg>